<?xml version="1.0" encoding="UTF-8" standalone="no"?> <svg width="64" height="64" viewBox="0 0 64 64" fill="none" xmlns="http://www.w3.org/2000/svg">
<path d="M32 33.75C31.6685 33.75 31.3505 33.8817 31.1161 34.1161C30.8817 34.3505 30.75 34.6685 30.75 35V40C30.75 40.3315 30.8817 40.6495 31.1161 40.8839C31.3505 41.1183 31.6685 41.25 32 41.25C32.3315 41.25 32.6495 41.1183 32.8839 40.8839C33.1183 40.6495 33.25 40.3315 33.25 40V35C33.25 34.6685 33.1183 34.3505 32.8839 34.1161C32.6495 33.8817 32.3315 33.75 32 33.75V33.75Z" fill="black"/>
<path d="M32 43.75C31.6685 43.75 31.3505 43.8817 31.1161 44.1161C30.8817 44.3505 30.75 44.6685 30.75 45V50C30.75 50.3315 30.8817 50.6495 31.1161 50.8839C31.3505 51.1183 31.6685 51.25 32 51.25C32.3315 51.25 32.6495 51.1183 32.8839 50.8839C33.1183 50.6495 33.25 50.3315 33.25 50V45C33.25 44.6685 33.1183 44.3505 32.8839 44.1161C32.6495 43.8817 32.3315 43.75 32 43.75V43.75Z" fill="black"/>
<path d="M32 53.75C31.6685 53.75 31.3505 53.8817 31.1161 54.1161C30.8817 54.3505 30.75 54.6685 30.75 55V60C30.75 60.3315 30.8817 60.6495 31.1161 60.8839C31.3505 61.1183 31.6685 61.25 32 61.25C32.3315 61.25 32.6495 61.1183 32.8839 60.8839C33.1183 60.6495 33.25 60.3315 33.25 60V55C33.25 54.6685 33.1183 54.3505 32.8839 54.1161C32.6495 53.8817 32.3315 53.75 32 53.75V53.75Z" fill="black"/>
<path d="M32 23.75C31.6685 23.75 31.3505 23.8817 31.1161 24.1161C30.8817 24.3505 30.75 24.6685 30.75 25V30C30.75 30.3315 30.8817 30.6495 31.1161 30.8839C31.3505 31.1183 31.6685 31.25 32 31.25C32.3315 31.25 32.6495 31.1183 32.8839 30.8839C33.1183 30.6495 33.25 30.3315 33.25 30V25C33.25 24.6685 33.1183 24.3505 32.8839 24.1161C32.6495 23.8817 32.3315 23.75 32 23.75Z" fill="black"/>
<path d="M32 3.75C31.6685 3.75 31.3505 3.8817 31.1161 4.11612C30.8817 4.35054 30.75 4.66848 30.75 5V10C30.75 10.3315 30.8817 10.6495 31.1161 10.8839C31.3505 11.1183 31.6685 11.25 32 11.25C32.3315 11.25 32.6495 11.1183 32.8839 10.8839C33.1183 10.6495 33.25 10.3315 33.25 10V5C33.25 4.66848 33.1183 4.35054 32.8839 4.11612C32.6495 3.8817 32.3315 3.75 32 3.75Z" fill="black"/>
<path d="M32 13.75C31.6685 13.75 31.3505 13.8817 31.1161 14.1161C30.8817 14.3505 30.75 14.6685 30.75 15V20C30.75 20.3315 30.8817 20.6495 31.1161 20.8839C31.3505 21.1183 31.6685 21.25 32 21.25C32.3315 21.25 32.6495 21.1183 32.8839 20.8839C33.1183 20.6495 33.25 20.3315 33.25 20V15C33.25 14.6685 33.1183 14.3505 32.8839 14.1161C32.6495 13.8817 32.3315 13.75 32 13.75Z" fill="black"/>
<path d="M61.2501 15.17C61.2485 14.8839 61.1481 14.6072 60.9659 14.3866C60.7836 14.1661 60.5307 14.0154 60.2501 13.96L48.0001 6.92003C47.7562 6.77483 47.4697 6.7184 47.189 6.76032C46.9084 6.80224 46.6508 6.93992 46.4601 7.15003C46.2655 7.35759 46.1476 7.6253 46.1258 7.90893C46.104 8.19256 46.1796 8.47515 46.3401 8.71003L50.0001 14.1C46.2328 14.6539 42.79 16.543 40.2991 19.4231C37.8082 22.3031 36.4351 25.9823 36.4301 29.79V56C36.4301 56.3315 36.5617 56.6495 36.7962 56.8839C37.0306 57.1183 37.3485 57.25 37.6801 57.25C38.0116 57.25 38.3295 57.1183 38.5639 56.8839C38.7984 56.6495 38.9301 56.3315 38.9301 56V29.79C38.9378 26.6581 40.0424 23.6279 42.0519 21.2257C44.0614 18.8234 46.8488 17.201 49.9301 16.64L46.3501 21.87C46.1916 22.1034 46.1167 22.3835 46.1376 22.6648C46.1584 22.9461 46.2738 23.2121 46.465 23.4195C46.6562 23.6269 46.9119 23.7636 47.1906 23.8072C47.4693 23.8509 47.7546 23.799 48.0001 23.66L60.6301 16.37C60.8308 16.2564 60.9948 16.0878 61.1029 15.884C61.211 15.6803 61.2585 15.4499 61.2401 15.22C61.2401 15.22 61.2501 15.19 61.2501 15.17ZM51.5301 18.74C54.3101 14.6 54.3001 15.97 51.5301 11.84L57.5301 15.29L51.5301 18.74Z" fill="black"/>
<path d="M14.0001 14.1L17.7001 8.70998C17.8806 8.47377 17.971 8.18094 17.9551 7.88406C17.9392 7.58719 17.818 7.3057 17.6133 7.09013C17.4086 6.87455 17.1337 6.73901 16.838 6.70783C16.5424 6.67664 16.2453 6.75186 16.0001 6.91998L3.80006 14C3.54569 14.0583 3.31409 14.1901 3.13411 14.3791C2.95414 14.5681 2.83373 14.8058 2.78789 15.0627C2.74205 15.3197 2.77281 15.5844 2.87632 15.8239C2.97984 16.0635 3.15155 16.2673 3.37006 16.41L16.0001 23.66C16.246 23.7934 16.5293 23.8412 16.8054 23.7958C17.0814 23.7504 17.3345 23.6144 17.5248 23.4092C17.715 23.2041 17.8316 22.9415 17.8561 22.6628C17.8806 22.3841 17.8116 22.1052 17.6601 21.87L14.0701 16.64C17.1513 17.2009 19.9388 18.8234 21.9482 21.2256C23.9577 23.6279 25.0623 26.6581 25.0701 29.79V56C25.0701 56.3315 25.2018 56.6494 25.4362 56.8839C25.6706 57.1183 25.9885 57.25 26.3201 57.25C26.6516 57.25 26.9695 57.1183 27.2039 56.8839C27.4384 56.6494 27.5701 56.3315 27.5701 56V29.79C27.565 25.9822 26.1919 22.303 23.701 19.423C21.2101 16.543 17.7673 14.6539 14.0001 14.1V14.1ZM6.50006 15.29L12.5001 11.84C9.71006 15.98 9.72006 14.6 12.5001 18.74L6.50006 15.29Z" fill="black"/>
</svg>
