<svg version="1.2" xmlns="http://www.w3.org/2000/svg" viewBox="0 0 542 542" width="542" height="542">
	<title>prag_distinguish-svg</title>
	<style>
		.s0 { fill: #000000 } 
	</style>
	<g id="Layer">
		<path id="Layer" class="s0" d="m202.3 387v86.6h-8.3v-86.6c0-39.1-31.8-70.9-70.9-70.9h-62.4l31.4-31.4h-26.2l-40.3 40.3 40.3 40.4h26.2l-31.4-31.4h62.4c29.2 0 53 23.8 53 53v86.6h-8.3v-86.6c0-24.7-20-44.7-44.7-44.7h-42.5l31.3 31.3h-49.4l-48.5-48.6 48.5-48.5h49.4l-31.3 31.3h42.5c43.7 0 79.2 35.5 79.2 79.2z"/>
		<path id="Layer" class="s0" d="m245.8 286.9h8.2v186.7h-8.2z"/>
		<path id="Layer" class="s0" d="m219.6 286.9h8.2v186.7h-8.2z"/>
		<path id="Layer" class="s0" d="m227.8 226.6h-8.3c0-43.6 35.6-79.1 79.2-79.1h55.3l-31.3-31.3h49.4l48.5 48.5-48.5 48.6h-49.4l31.3-31.4h-55.3c-24.7 0-44.7 20.1-44.7 44.7h-8.2c0-29.2 23.7-52.9 52.9-52.9h75.2l-31.3 31.3h26.1l40.3-40.3-40.3-40.3h-26.1l31.3 31.3h-75.2c-39.1 0-70.9 31.8-70.9 70.9z"/>
		<path id="Layer" class="s0" d="m81 131l-31.4 31.3v-49.3l48.6-48.6 48.5 48.6v49.4l-31.3-31.4v63.7c0 24.6 20.1 44.7 44.7 44.7h117.9c32.7 0 62.4 20.6 74 51.3l-7.7 2.9c-10.4-27.5-37-46-66.3-46h-117.9c-29.2 0-52.9-23.7-52.9-52.9v-83.6l31.3 31.4v-26.1l-40.3-40.3-40.3 40.3v26.1l31.3-31.4v83.6c0 39.1 31.8 70.9 70.9 70.9h117.9c21.4 0 40.6 12.9 48.9 32.8l-7.7 3.1c-6.9-16.8-23.1-27.6-41.2-27.6h-117.9c-43.6 0-79.1-35.5-79.1-79.2z"/>
		<path id="Layer" class="s0" d="m348.9 355.3l8.2-0.1v118.4h-8.2z"/>
		<path id="Layer" class="s0" d="m322.7 362.6h8.2v111h-8.2z"/>
		<path id="Layer" class="s0" d="m518 196v49.4l-31.3-31.4v49.2c0 43.6-35.5 79.1-79.2 79.1h-57.4c-24.6 0-44.6 20-44.6 44.7v86.6h-8.3v-86.6c0-29.2 23.8-53 52.9-53h57.4c39.1 0 70.9-31.8 70.9-70.8v-69.1l31.3 31.4v-26.1l-40.2-40.3-40.4 40.3v26.1l31.4-31.4v69.1c0 29.1-23.8 52.9-52.9 52.9h-57.4c-39.2 0-71 31.8-71 70.9v86.6h-8.2v-86.6c0-43.7 35.5-79.2 79.2-79.2h57.4c24.6 0 44.6-20 44.6-44.6v-49.2l-31.3 31.4v-49.4l48.6-48.6z"/>
	</g>
</svg>