<?xml version="1.0" encoding="iso-8859-1"?>
<!-- Generator: Adobe Illustrator 20.0.0, SVG Export Plug-In . SVG Version: 6.00 Build 0)  -->
<svg version="1.1" id="Layer_1_1_" xmlns="http://www.w3.org/2000/svg" xmlns:xlink="http://www.w3.org/1999/xlink" x="0px" y="0px"
	 viewBox="0 0 64 64" style="enable-background:new 0 0 64 64;" xml:space="preserve">
<path d="M58.599,28.061L44.966,5.664C44.792,3.618,43.091,2,41,2c-2.206,0-4,1.794-4,4c0,0.82,0.25,1.583,0.675,2.219L32,17.137
	l-5.675-8.918C26.75,7.583,27,6.82,27,6c0-2.206-1.794-4-4-4s-4,1.794-4,4c0,0.832,0.257,1.605,0.693,2.246L7.767,28.43
	C7.231,28.163,6.637,28,6,28c-2.206,0-4,1.794-4,4c0,2.001,1.481,3.648,3.401,3.939l13.633,22.397C19.208,60.382,20.909,62,23,62
	c2.206,0,4-1.794,4-4c0-0.82-0.25-1.583-0.675-2.219L32,46.863l5.675,8.918C37.25,56.417,37,57.18,37,58c0,2.206,1.794,4,4,4
	c2.091,0,3.792-1.618,3.966-3.664l13.633-22.397C60.519,35.648,62,34.001,62,32S60.519,28.352,58.599,28.061z M42,54.142V35.858
	c1.399-0.364,2.494-1.459,2.858-2.858h9.284c0.312,1.201,1.157,2.188,2.278,2.672L44.243,55.677
	C43.705,54.928,42.917,54.38,42,54.142z M19.757,55.677L7.58,35.672C8.701,35.188,9.546,34.201,9.858,33h9.284
	c0.364,1.399,1.459,2.494,2.858,2.858v18.284C21.083,54.38,20.295,54.928,19.757,55.677z M22,9.858v18.284
	c-1.399,0.364-2.494,1.459-2.858,2.858H9.858c-0.117-0.449-0.297-0.872-0.551-1.246L21.233,9.57C21.477,9.692,21.732,9.788,22,9.858
	z M23,34c-1.103,0-2-0.897-2-2s0.897-2,2-2s2,0.897,2,2S24.103,34,23,34z M37.142,31H26.858c-0.114-0.438-0.288-0.852-0.533-1.219
	L32,20.863l5.675,8.918C37.43,30.148,37.256,30.562,37.142,31z M26.858,33h10.284c0.114,0.438,0.288,0.852,0.533,1.219L32,43.137
	l-5.675-8.918C26.57,33.852,26.744,33.438,26.858,33z M39,32c0-1.103,0.897-2,2-2s2,0.897,2,2s-0.897,2-2,2S39,33.103,39,32z
	 M54.142,31h-9.284c-0.364-1.399-1.459-2.494-2.858-2.858V9.858c0.917-0.238,1.705-0.786,2.243-1.535L56.42,28.328
	C55.299,28.812,54.454,29.799,54.142,31z M41,4c1.103,0,2,0.897,2,2s-0.897,2-2,2s-2-0.897-2-2S39.897,4,41,4z M39.198,9.551
	c0.254,0.129,0.52,0.233,0.802,0.307v18.284c-0.281,0.073-0.548,0.177-0.802,0.307L33.186,19L39.198,9.551z M24.802,28.449
	c-0.254-0.129-0.52-0.233-0.802-0.307V9.858c0.281-0.073,0.548-0.177,0.802-0.307L30.814,19L24.802,28.449z M23,4
	c1.103,0,2,0.897,2,2s-0.897,2-2,2s-2-0.897-2-2S21.897,4,23,4z M4,32c0-1.103,0.897-2,2-2s2,0.897,2,2s-0.897,2-2,2S4,33.103,4,32z
	 M23,60c-1.103,0-2-0.897-2-2s0.897-2,2-2s2,0.897,2,2S24.103,60,23,60z M24.802,54.449c-0.254-0.129-0.52-0.233-0.802-0.307V35.858
	c0.281-0.073,0.548-0.177,0.802-0.307L30.814,45L24.802,54.449z M39.198,35.551c0.254,0.129,0.52,0.233,0.802,0.307v18.284
	c-0.281,0.073-0.548,0.177-0.802,0.307L33.186,45L39.198,35.551z M41,60c-1.103,0-2-0.897-2-2s0.897-2,2-2s2,0.897,2,2
	S42.103,60,41,60z M58,34c-1.103,0-2-0.897-2-2s0.897-2,2-2s2,0.897,2,2S59.103,34,58,34z"/>
<path d="M6,10c2.206,0,4-1.794,4-4S8.206,2,6,2S2,3.794,2,6S3.794,10,6,10z M6,4c1.103,0,2,0.897,2,2S7.103,8,6,8S4,7.103,4,6
	S4.897,4,6,4z"/>
<path d="M58,2c-2.206,0-4,1.794-4,4s1.794,4,4,4s4-1.794,4-4S60.206,2,58,2z M58,8c-1.103,0-2-0.897-2-2s0.897-2,2-2s2,0.897,2,2
	S59.103,8,58,8z"/>
<path d="M6,54c-2.206,0-4,1.794-4,4s1.794,4,4,4s4-1.794,4-4S8.206,54,6,54z M6,60c-1.103,0-2-0.897-2-2s0.897-2,2-2s2,0.897,2,2
	S7.103,60,6,60z"/>
<path d="M58,54c-2.206,0-4,1.794-4,4s1.794,4,4,4s4-1.794,4-4S60.206,54,58,54z M58,60c-1.103,0-2-0.897-2-2s0.897-2,2-2
	s2,0.897,2,2S59.103,60,58,60z"/>
</svg>
